HIERARCHY
ROOT Hips
{
  OFFSET -102.467 93.6631 130.069
  CHANNELS 6 Xposition Yposition Zposition Zrotation Xrotation Yrotation
  JOINT LeftUpLeg
  {
    OFFSET 8.64259 1.95398 -2.38835
    CHANNELS 3 Zrotation Xrotation Yrotation
    JOINT LeftLeg
    {
      OFFSET 43.7702 0 0
      CHANNELS 3 Zrotation Xrotation Yrotation
      JOINT LeftFoot
      {
        OFFSET 40.6238 0 0
        CHANNELS 3 Zrotation Xrotation Yrotation
        JOINT LeftToeBase
        {
          OFFSET 12.7242 0 0
          CHANNELS 3 Zrotation Xrotation Yrotation
          End Site
          {
            OFFSET 0 0 0
          }
        }
      }
    }
  }
  JOINT RightUpLeg
  {
    OFFSET -8.2249 1.95398 -2.59336
    CHANNELS 3 Zrotation Xrotation Yrotation
    JOINT RightLeg
    {
      OFFSET 43.5653 0 0
      CHANNELS 3 Zrotation Xrotation Yrotation
      JOINT RightFoot
      {
        OFFSET 40.6238 0 0
        CHANNELS 3 Zrotation Xrotation Yrotation
        JOINT RightToeBase
        {
          OFFSET 12.7242 0 0
          CHANNELS 3 Zrotation Xrotation Yrotation
          End Site
          {
            OFFSET 0 0 0
          }
        }
      }
    }
  }
  JOINT Spine
  {
    OFFSET 0.165834 0.87714 6.61349
    CHANNELS 3 Zrotation Xrotation Yrotation
    JOINT Spine1
    {
      OFFSET 7.38963 1.71661e-005 0
      CHANNELS 3 Zrotation Xrotation Yrotation
      JOINT Spine2
      {
        OFFSET 11.9445 1.14441e-005 0
        CHANNELS 3 Zrotation Xrotation Yrotation
        JOINT Spine3
        {
          OFFSET 14.7254 4.19617e-005 0
          CHANNELS 3 Zrotation Xrotation Yrotation
          JOINT Spine4
          {
            OFFSET 10.9679 0 0
            CHANNELS 3 Zrotation Xrotation Yrotation
            JOINT RightShoulder
            {
              OFFSET 2.46616 -1.6653 3.69651
              CHANNELS 3 Zrotation Xrotation Yrotation
              JOINT RightArm
              {
                OFFSET 13.0012 0 0
                CHANNELS 3 Zrotation Xrotation Yrotation
                JOINT RightForeArm
                {
                  OFFSET 28.7848 1.52588e-005 0
                  CHANNELS 3 Zrotation Xrotation Yrotation
                  JOINT RightHand
                  {
                    OFFSET 26.5688 1.52588e-005 0
                    CHANNELS 3 Zrotation Xrotation Yrotation
                    End Site
                    {
                      OFFSET 0 0 0
                    }
                  }
                }
              }
            }
            JOINT LeftShoulder
            {
              OFFSET 2.38034 -1.29275 -3.7523
              CHANNELS 3 Zrotation Xrotation Yrotation
              JOINT LeftArm
              {
                OFFSET 16.3182 6.10351e-005 0
                CHANNELS 3 Zrotation Xrotation Yrotation
                JOINT LeftForeArm
                {
                  OFFSET 27.0901 0 0
                  CHANNELS 3 Zrotation Xrotation Yrotation
                  JOINT LeftHand
                  {
                    OFFSET 24.5451 1.52588e-005 0
                    CHANNELS 3 Zrotation Xrotation Yrotation
                    End Site
                    {
                      OFFSET 0 0 0
                    }
                  }
                }
              }
            }
            JOINT Neck
            {
              OFFSET 5.0226 -0.0266342 0
              CHANNELS 3 Zrotation Xrotation Yrotation
              JOINT Head
              {
                OFFSET 6.69363 2.86102e-005 0
                CHANNELS 3 Zrotation Xrotation Yrotation
                End Site
                {
                  OFFSET 0 0 0
                }
              }
            }
          }
        }
      }
    }
  }
}
MOTION
Frames:	15
Frame Time:	0.0416667
-294.561 63.8806 309.484 98.9291 33.3939 87.791 -165.559 23.8248 104.929 -78.1941 59.4561 -19.715 103.853 57.261 17.3423 153.462 -12.4003 7.23434 170.873 -8.06541 43.6807 -102.224 -54.5646 8.59047 94.779 83.315 72.72 -30.221 13.354 1.60756 2.94162 4.22718 -89.7255 18.4673 5.91793 -0.598178 6.8096 5.88583 -0.858976 -15.8315 5.82311 1.21431 4.18118 5.82314 1.2143 121.195 -4.21302 -20.8132 77.5625 -47.3462 -25.1505 4.32469 -22.8171 -23.1147 3.38024 3.75743 81.7473 -61.2188 -25.0103 131.463 -9.30199 74.1904 -6.37899 127.572 8.47006 -80.2082 14.2032 -2.69349 -22.1 35.7729 -14.2513 4.39229 -95.6093 -3.17387 -14.0868 
-295.382 64.0502 310.41 98.9294 33.4505 87.8624 -166.001 24.8556 106.218 -75.6814 60.3666 -22.6846 102.737 57.1467 16.8906 155.779 -18.0541 5.16457 170.255 -9.00769 43.0563 -100.447 -55.4166 9.46449 99.4018 82.3079 68.8789 -29.3501 13.4237 0.869338 2.935 4.24027 -89.7346 18.4414 5.90051 -0.611219 6.78356 5.86786 -0.871211 -15.857 5.81045 1.19658 4.15568 5.81043 1.19658 121.273 -4.30874 -20.7413 77.6397 -47.243 -24.8996 4.11675 -23.0039 -23.4459 3.05531 3.41825 81.1982 -61.1838 -25.1144 131.478 -9.53233 74.984 -4.74972 133.095 9.04656 -79.9832 11.6637 -1.9954 -19.6652 36.1324 -14.0439 4.70393 -95.9485 -2.91023 -14.2132 
-297.771 64.5398 313.087 98.931 33.6211 88.0672 -167.314 27.6895 109.718 -67.9539 62.1645 -31.4007 99.3671 56.3539 15.8639 158.585 -33.0906 -0.427602 168.387 -11.6739 41.2091 -94.7946 -57.6669 12.3697 108.246 79.3398 62.3878 -26.8706 13.6631 -1.51248 2.91515 4.27847 -89.7608 18.365 5.84874 -0.648522 6.70695 5.8145 -0.906167 -15.932 5.77229 1.14532 4.08067 5.7723 1.14532 121.503 -4.5922 -20.5303 77.8187 -46.9708 -24.2152 3.53707 -23.5028 -24.394 1.92651 2.28151 79.5854 -61.0802 -25.421 131.524 -11.5488 77.249 1.37401 144.925 10.6857 -78.5821 5.35737 -0.718555 -13.4625 37.1488 -13.4448 5.57785 -96.9019 -2.16004 -14.5624 
-301.601 65.3203 317.327 98.936 33.9142 88.3889 -167.381 33.6678 109.657 -71.6391 62.6512 -27.514 97.8104 52.1538 14.8816 154.689 -50.9929 -10.3987 165.122 -15.7764 38.0338 -83.9814 -60.5691 18.4491 117.034 74.6427 57.9104 -23.2212 14.2242 -6.23491 2.88126 4.34152 -89.8026 18.2389 5.76178 -0.706833 6.58039 5.72508 -0.960566 -16.0558 5.70692 1.06333 3.95684 5.70694 1.06334 121.887 -5.0644 -20.1851 77.9886 -46.6077 -23.2342 2.70396 -24.1878 -25.8669 -0.801654 -0.252514 76.9656 -60.9068 -25.9252 131.606 -21.56 80.4527 18.0773 155.547 13.346 -74.7454 -1.26694 -0.105452 -5.36977 38.7139 -12.4911 6.89485 -98.3548 -0.998528 -15.0718 
-306.639 66.3051 322.769 98.9494 34.3405 88.812 -165.99 41.4622 105.857 -82.2696 62.2324 -14.7338 96.1403 44.9207 15.7312 139.267 -64.3105 -28.6107 159.758 -21.2624 33.1243 -65.2519 -62.4871 29.6661 127.962 69.2097 54.5644 -20.1069 15.8199 -14.6275 2.83219 4.42984 -89.8589 18.0621 5.6383 -0.783993 6.40305 5.59832 -1.03216 -16.2293 5.61239 0.952299 3.78339 5.6124 0.952306 122.431 -5.73194 -19.708 78.0249 -46.2451 -22.1109 2.05715 -24.9243 -27.6145 -9.7678 -7.45935 73.0499 -60.6602 -26.6263 131.727 -53.1651 82.1003 58.6079 162.772 16.8393 -68.2808 -6.18123 -0.343113 3.21514 40.7125 -11.2225 8.521 -100.183 0.490252 -15.6716 
-312.494 67.1454 328.81 98.9837 34.9003 89.3288 -164.823 48.7739 102.043 -88.7976 58.4738 -4.94439 95.555 36.3052 13.0192 113.982 -70.0962 -54.8228 144.464 -35.7363 12.895 -19.3249 -40.8567 59.6167 118.149 70.8756 66.7558 -23.6336 22.0055 -27.4647 2.76828 4.54421 -89.9303 17.8332 5.4785 -0.88179 6.17332 5.43437 -1.12275 -16.454 5.48944 0.810606 3.55867 5.48944 0.810605 123.143 -6.60207 -19.1017 77.8175 -45.9685 -20.9903 5.20244 -21.2228 -27.1382 -82.2645 -36.8371 42.9398 -60.3381 -27.5234 131.893 -82.267 78.4698 98.0295 167.745 20.5919 -60.1822 -9.49238 -1.07659 11.4203 43.0318 -9.68217 10.3297 -102.268 2.22283 -16.3008 
-317.794 67.5526 334.438 99.0768 35.5669 89.9515 -165.171 54.4436 99.6259 -90.6842 55.1721 0.568232 94.4099 28.1825 10.8296 91.3475 -70.3694 -77.6012 113.282 -49.0115 -7.95281 29.0008 -19.4236 70.3893 176.136 60.1837 22.0877 -48.6988 39.7733 -34.0959 2.69303 4.68629 -90.0224 17.5487 5.2863 -1.01222 5.88798 5.23662 -1.24452 -16.7334 5.34539 0.627975 3.27924 5.3454 0.627974 124.029 -7.67928 -18.3716 77.2799 -45.8465 -20.0003 29.1138 31.8717 -31.636 -157.696 35.4297 -14.3665 -59.9402 -28.6114 132.101 -87.2858 72.0835 113.499 171.669 23.8276 -52.1093 -11.743 -2.02219 18.8891 45.5638 -7.91878 12.2079 -104.495 4.11851 -16.9116 
-320.267 69.0993 339.2 99.3403 36.2708 90.7422 -169.802 55.9881 102.061 -88.3944 51.4751 3.3197 95.4774 20.5589 7.31266 77.3011 -68.6894 -91.5092 109.744 -46.8155 9.57062 -55.6222 58.0959 51.7467 -71.2988 -8.73061 -123.939 -70.7807 62.6922 -42.4932 2.61511 4.86114 -90.1526 17.1997 5.07025 -1.21213 5.53786 5.01198 -1.43463 -17.077 5.19951 0.371878 2.93568 5.1995 0.371875 125.092 -8.96122 -17.5272 76.3515 -45.9209 -19.2474 137.678 56.3514 -123.594 -25.9251 58.6815 -141.994 -59.4723 -29.8774 132.345 -82.6406 66.029 118.255 175.117 25.8043 -45.5924 -13.3614 -3.03879 25.5851 48.205 -5.99005 14.0588 -106.759 6.10003 -17.4718 
-326.963 67.9864 346.956 99.9656 36.9397 91.8161 -178.206 61.4038 107.003 -84.2035 46.5441 4.09258 91.3039 10.5564 3.88147 69.0176 -66.7315 -99.5383 100.205 -46.5249 11.4869 -176.449 73.2469 175.776 -94.0991 -21.0702 -165.184 8.86149 28.3436 -143.238 2.54554 5.07716 -90.3502 16.7704 4.83777 -1.54188 5.10733 4.76521 -1.75371 -17.5002 5.07695 -0.0130001 2.51243 5.07695 -0.0129996 126.326 -10.4351 -16.583 75.0042 -46.1969 -18.8046 165.935 34.8831 -142.592 -10.893 29.1583 -146.987 -58.948 -31.2962 132.609 -74.8599 61.5379 118.287 178.151 26.0969 -41.2124 -14.6057 -4.07286 31.5808 50.8602 -3.9611 15.8077 -108.965 8.09833 -17.9669 
-334.454 65.8891 354.847 101.033 37.5786 93.2273 167.736 64.721 117.373 -77.1889 40.6236 3.48925 84.5576 1.22342 -0.914826 63.712 -64.8232 -104.474 95.7112 -45.1216 3.39383 -1.59382 4.59938 2.60622 -33.4289 -26.5511 -55.1352 21.4471 -57.2461 -136.134 2.4894 5.33491 -90.6272 16.2593 4.59363 -2.02648 4.59462 4.5 -2.22698 -18.0041 4.98982 -0.549183 2.00853 4.98982 -0.54918 127.718 -12.0765 -15.5577 73.2425 -46.647 -18.7061 173.591 23.3359 -143.471 -6.92951 14.8932 -139.297 -58.3904 -32.8302 132.867 -65.9327 58.7007 115.624 -179.297 24.7622 -38.7234 -15.6183 -5.10522 36.9607 53.447 -1.90039 17.4032 -111.036 10.0559 -18.3966 
-341.636 63.6244 362.093 102.405 38.233 94.903 151.225 63.5057 130.367 -67.4485 32.8206 1.95247 75.6928 -5.38427 -8.58248 59.7133 -62.722 -107.853 91.6868 -43.0448 -4.50865 -177.07 56.0183 173.646 23.5477 32.1665 -105.315 136.656 -50.9984 -1.47714 2.44717 5.62117 -90.9625 15.6913 4.35062 -2.6265 4.02456 4.23084 -2.81557 -18.5631 4.93842 -1.19521 1.44957 4.93841 -1.19522 129.243 -13.8488 -14.4743 71.1026 -47.2182 -18.9462 179.918 13.6207 -142.279 -2.73359 4.16221 -130.475 -57.8327 -34.428 133.085 -56.6391 57.0105 111.295 -177.236 22.239 -37.5945 -16.4779 -6.127 41.7996 55.8939 0.123559 18.8126 -112.91 11.9267 -18.77 
-348.312 61.7217 368.672 103.888 38.9176 96.7291 139.122 57.6484 139.106 -55.1107 13.9495 0.471393 63.4233 1.7055 -30.4655 54.5651 -57.7145 -110.869 88.2584 -40.2909 -11.245 173.109 -43.5605 174.58 83.3436 18.0515 155.399 113 27.46 47.522 2.42033 5.91845 -91.3251 15.1002 4.12745 -3.2846 3.4312 3.97898 -3.46307 -19.143 4.92333 -1.89082 0.869654 4.92334 -1.89083 130.866 -15.7036 -13.3604 68.6535 -47.8433 -19.4782 -170.152 0.88793 -140.183 4.45241 -7.84198 -120.462 -57.3181 -36.0259 133.222 -47.5827 55.8342 106.152 -175.583 19.1175 -37.3398 -17.2266 -7.13061 46.1574 58.1386 2.04796 20.0218 -114.544 13.6779 -19.1027 
-354.309 59.6415 374.729 105.347 39.6144 98.6169 133.519 48.1017 140.218 -40.2053 -3.67851 2.12261 122.082 64.0199 -116.921 81.8237 -54.9831 -71.0124 87.1504 -36.9795 -15.7816 167.317 -66.0011 170.278 -7.9978 -40.3697 109.68 15.1412 12.4942 156.452 2.4103 6.21228 -91.6923 14.5148 3.9387 -3.95813 2.84327 3.76085 -4.12751 -19.7155 4.94562 -2.59095 0.297096 4.94562 -2.59096 132.54 -17.5863 -12.2469 65.9879 -48.4586 -20.222 -149.966 -19.0154 -133.461 19.3161 -22.6644 -102.525 -56.8942 -37.5568 133.233 -39.3317 54.7309 100.95 -174.218 15.9008 -37.6292 -17.8858 -8.10623 50.0757 60.131 3.82815 21.0358 -115.912 15.2959 -19.4116 
-360.055 57.4684 379.944 106.706 40.2949 100.505 132.964 33.5581 141.228 -61.9966 88.9238 44.6194 -7.00539 60.5646 3.51825 124.404 -48.491 -26.7321 88.8667 -33.5214 -18.229 -6.20464 26.9737 4.20566 -105.178 -22.1268 -80.3948 -169.808 -54.3287 24.1213 2.41755 6.49196 -92.0494 13.9567 3.79157 -4.61965 2.28244 3.58481 -4.78173 -20.2596 5.00384 -3.2672 -0.246995 5.00385 -3.26719 134.218 -19.443 -11.1663 63.204 -49.0176 -21.0829 -109.007 -38.6738 -109.801 40.6027 -25.7832 -67.5299 -56.6053 -38.961 133.079 -32.2908 53.5175 96.2253 -173.046 12.902 -38.256 -18.4686 -9.04348 53.5819 61.8328 5.44434 21.8753 -117.003 16.785 -19.7109 
-366.727 56.4602 385.816 107.921 40.9293 102.347 130.647 19.8643 143.854 -178.436 -56.6557 -179.828 24.7899 -77.1434 0.95694 133.729 -45.8007 -18.8992 90.8787 -30.0595 -19.7508 -7.4381 38.455 4.40927 -86.2408 -48.431 -109.701 156.455 -38.5693 12.4272 2.44047 6.74958 -92.3872 13.4421 3.6867 -5.25085 1.76509 3.45242 -5.40757 -20.7595 5.09319 -3.90191 -0.746894 5.0932 -3.90191 135.847 -21.2247 -10.1521 60.392 -49.4946 -21.9664 -69.5279 -39.0144 -83.3802 40.2449 -14.6963 -43.9281 -56.4877 -40.1938 132.729 -26.6465 52.1767 92.2698 -172.003 10.2726 -39.0849 -18.9862 -9.93345 56.6965 63.2134 6.90093 22.5728 -117.818 18.1642 -20.0113 
